<svg xmlns="http://www.w3.org/2000/svg" xmlns:xlink="http://www.w3.org/1999/xlink" viewBox="0,0,256,256" width="200px" height="200px" fill-rule="nonzero"><g fill="none" fill-rule="nonzero" stroke="none" stroke-width="1" stroke-linecap="butt" stroke-linejoin="miter" stroke-miterlimit="10" stroke-dasharray="" stroke-dashoffset="0" font-family="none" font-weight="none" font-size="none" text-anchor="none" style="mix-blend-mode: normal"><g transform="scale(2.56,2.56)"><path d="M84.353,55.831c0.3,-0.616 0.566,-1.264 0.796,-1.943c2.633,-7.77 -1.349,-17.078 -9.733,-19.325c-0.906,-11.384 -8.906,-19.193 -17.941,-20.526c-10.341,-1.525 -19.814,5.044 -22.966,15.485c-3.799,-1.346 -7.501,-1.182 -10.99,0.857c-1.583,0.732 -3.031,1.812 -4.33,3.233c-1.907,2.086 -3.147,4.719 -3.652,7.495c-0.748,0.118 -1.483,0.236 -2.176,0.484c-4.04,1.449 -6.589,4.431 -7.288,8.923c-0.435,2.797 0.443,5.587 0.933,6.714c1.935,4.455 6.422,6.98 10.981,6.312c0.227,-0.033 0.557,0.069 0.752,0.233c0.241,7.12 3.698,13.417 8.884,17.014c8.321,5.772 19.027,3.994 25.781,-3.921c2.894,2.96 6.338,4.398 10.384,3.876c4.023,-0.519 7.147,-2.739 9.426,-6.349c1.053,0.283 2.051,0.691 3.083,0.804c4.042,0.442 7.297,-1.184 9.732,-4.8c0.083,-0.124 0.203,-0.219 0.306,-0.328c0.348,-0.798 0.696,-1.596 1.044,-2.394c0.155,-1.211 0.429,-2.423 0.443,-3.632c0.039,-3.255 -1.292,-6.223 -3.469,-8.212z" fill="#a3e1f1"></path><path d="M76.178,68.01c0,0 11.691,0 11.762,0c2.7,0 4.888,-2.189 4.888,-4.889c0,-2.355 -1.666,-4.321 -3.884,-4.784c0.026,-0.206 0.043,-0.415 0.043,-0.628c0,-2.796 -2.267,-5.063 -5.063,-5.063c-1.651,0 -3.113,0.794 -4.037,2.017c-0.236,-3.113 -3.017,-5.514 -6.27,-5.116c-2.379,0.291 -4.346,2.13 -4.784,4.486c-0.14,0.756 -0.126,1.489 0.014,2.177c-0.638,-0.687 -1.546,-1.119 -2.557,-1.119c-1.85,0 -3.361,1.441 -3.48,3.261c-0.84,-0.186 -1.754,-0.174 -2.717,0.188c-1.84,0.691 -3.15,2.423 -3.227,4.387c-0.109,2.789 2.12,5.085 4.885,5.085c0.21,0 0.948,0 1.118,0h10.151" fill="#fdfcef"></path><path d="M87.94,68.51h-11.763c-0.276,0 -0.5,-0.224 -0.5,-0.5c0,-0.276 0.224,-0.5 0.5,-0.5h11.763c2.419,0 4.388,-1.969 4.388,-4.389c0,-2.067 -1.466,-3.873 -3.486,-4.295c-0.254,-0.053 -0.426,-0.292 -0.394,-0.55c0.022,-0.186 0.039,-0.375 0.039,-0.567c0,-2.516 -2.047,-4.563 -4.562,-4.563c-1.439,0 -2.766,0.663 -3.639,1.818c-0.124,0.167 -0.343,0.236 -0.539,0.179c-0.2,-0.059 -0.342,-0.235 -0.358,-0.442c-0.104,-1.377 -0.778,-2.671 -1.85,-3.549c-1.082,-0.887 -2.451,-1.281 -3.86,-1.109c-2.166,0.265 -3.956,1.943 -4.354,4.081c-0.124,0.667 -0.119,1.335 0.014,1.986c0.045,0.22 -0.062,0.442 -0.262,0.545c-0.197,0.102 -0.442,0.061 -0.595,-0.104c-0.574,-0.619 -1.353,-0.959 -2.19,-0.959c-1.569,0 -2.879,1.227 -2.981,2.793c-0.01,0.146 -0.082,0.28 -0.199,0.367c-0.116,0.087 -0.27,0.119 -0.407,0.088c-0.844,-0.188 -1.64,-0.131 -2.434,0.167c-1.669,0.626 -2.836,2.209 -2.902,3.938c-0.048,1.207 0.386,2.35 1.221,3.218c0.835,0.869 1.959,1.347 3.164,1.347h11.269c0.276,0 0.5,0.224 0.5,0.5c0,0.276 -0.224,0.5 -0.5,0.5h-11.27c-1.479,0 -2.859,-0.587 -3.885,-1.654c-1.025,-1.066 -1.558,-2.469 -1.5,-3.95c0.083,-2.126 1.51,-4.069 3.551,-4.836c0.801,-0.3 1.629,-0.401 2.468,-0.298c0.377,-1.823 1.997,-3.182 3.905,-3.182c0.684,0 1.354,0.179 1.943,0.509c-0.001,-0.385 0.035,-0.772 0.107,-1.159c0.476,-2.562 2.62,-4.573 5.215,-4.891c1.686,-0.208 3.32,0.267 4.615,1.328c1.004,0.823 1.716,1.951 2.038,3.193c1.012,-0.916 2.319,-1.425 3.714,-1.425c3.067,0 5.562,2.496 5.562,5.563c0,0.083 -0.002,0.166 -0.007,0.249c2.254,0.672 3.848,2.777 3.848,5.164c0.001,2.971 -2.416,5.389 -5.387,5.389z" fill="#472b29"></path><path d="M73.345,57.241c-1.808,-0.119 -3.365,1.13 -3.476,2.789c-0.014,0.206 -0.005,0.409 0.025,0.606c-0.349,-0.394 -0.865,-0.661 -1.458,-0.7c-1.085,-0.071 -2.022,0.645 -2.158,1.62c-0.197,-0.054 -0.403,-0.09 -0.616,-0.104c-1.582,-0.104 -2.944,0.989 -3.042,2.441" fill="#fdfcef"></path><path d="M62.62,64.142c-0.006,0 -0.011,0 -0.017,0c-0.138,-0.009 -0.242,-0.128 -0.232,-0.266c0.106,-1.586 1.567,-2.787 3.308,-2.674c0.135,0.009 0.271,0.027 0.408,0.053c0.274,-0.967 1.251,-1.643 2.366,-1.568c0.425,0.028 0.822,0.161 1.162,0.382c0.001,-0.018 0.002,-0.036 0.004,-0.055c0.121,-1.794 1.801,-3.146 3.742,-3.022c0.138,0.009 0.242,0.128 0.232,0.266c-0.008,0.132 -0.118,0.233 -0.249,0.233c-0.005,0 -0.011,0 -0.017,0c-1.647,-0.111 -3.107,1.037 -3.211,2.557c-0.012,0.183 -0.004,0.368 0.024,0.551c0.017,0.11 -0.04,0.217 -0.141,0.264c-0.1,0.047 -0.22,0.023 -0.293,-0.06c-0.323,-0.364 -0.781,-0.583 -1.288,-0.617c-0.945,-0.056 -1.776,0.555 -1.894,1.405c-0.011,0.071 -0.051,0.134 -0.11,0.174c-0.059,0.04 -0.135,0.051 -0.203,0.033c-0.189,-0.051 -0.38,-0.084 -0.567,-0.096c-1.438,-0.104 -2.688,0.896 -2.776,2.208c-0.008,0.131 -0.117,0.232 -0.248,0.232z" fill="#472b29"></path><path d="M89.919,58.909c-1.699,-0.801 -3.664,-0.234 -4.389,1.267c-0.09,0.186 -0.157,0.379 -0.201,0.574" fill="#fdfcef"></path><path d="M85.329,60.999c-0.019,0 -0.037,-0.002 -0.057,-0.006c-0.134,-0.031 -0.218,-0.165 -0.187,-0.3c0.05,-0.216 0.123,-0.427 0.219,-0.625c0.783,-1.622 2.899,-2.243 4.721,-1.384c0.125,0.059 0.179,0.208 0.12,0.333c-0.06,0.125 -0.209,0.177 -0.333,0.12c-1.574,-0.742 -3.393,-0.227 -4.057,1.149c-0.08,0.165 -0.142,0.34 -0.184,0.521c-0.026,0.114 -0.128,0.192 -0.242,0.192z" fill="#472b29"></path><path d="M21.228,63.736h-10.03c-0.276,0 -0.5,-0.224 -0.5,-0.5c0,-0.276 0.224,-0.5 0.5,-0.5h10.03c0.276,0 0.5,0.224 0.5,0.5c0,0.276 -0.224,0.5 -0.5,0.5zM24.109,63.736h-1.445c-0.276,0 -0.5,-0.224 -0.5,-0.5c0,-0.276 0.224,-0.5 0.5,-0.5h1.445c0.276,0 0.5,0.224 0.5,0.5c0,0.276 -0.224,0.5 -0.5,0.5zM28.164,63.736h-2.546c-0.276,0 -0.5,-0.224 -0.5,-0.5c0,-0.276 0.224,-0.5 0.5,-0.5h2.546c0.276,0 0.5,0.224 0.5,0.5c0,0.276 -0.224,0.5 -0.5,0.5zM28.164,65.601h-9.616c-0.276,0 -0.5,-0.224 -0.5,-0.5c0,-0.276 0.224,-0.5 0.5,-0.5h9.616c0.276,0 0.5,0.224 0.5,0.5c0,0.276 -0.224,0.5 -0.5,0.5zM16.816,65.601h-0.58c-0.276,0 -0.5,-0.224 -0.5,-0.5c0,-0.276 0.224,-0.5 0.5,-0.5h0.58c0.276,0 0.5,0.224 0.5,0.5c0,0.276 -0.224,0.5 -0.5,0.5zM14.439,65.601h-1.456c-0.276,0 -0.5,-0.224 -0.5,-0.5c0,-0.276 0.224,-0.5 0.5,-0.5h1.456c0.276,0 0.5,0.224 0.5,0.5c0,0.276 -0.224,0.5 -0.5,0.5zM23.575,61.872h-5.027c-0.276,0 -0.5,-0.224 -0.5,-0.5c0,-0.276 0.224,-0.5 0.5,-0.5h5.027c0.276,0 0.5,0.224 0.5,0.5c0,0.276 -0.224,0.5 -0.5,0.5zM23.575,60.007h-1.257c-0.276,0 -0.5,-0.224 -0.5,-0.5c0,-0.276 0.224,-0.5 0.5,-0.5h1.257c0.276,0 0.5,0.224 0.5,0.5c0,0.276 -0.224,0.5 -0.5,0.5zM20.306,67.466h-1.759c-0.276,0 -0.5,-0.224 -0.5,-0.5c0,-0.276 0.224,-0.5 0.5,-0.5h1.759c0.276,0 0.5,0.224 0.5,0.5c0,0.276 -0.223,0.5 -0.5,0.5z" fill="#ffffff"></path><path d="M36.187,53.126c1.883,0 3.517,0 3.54,0c2.11,0 3.821,-1.674 3.821,-3.739c0,-1.802 -1.302,-3.305 -3.035,-3.66c0.02,-0.158 0.034,-0.317 0.034,-0.48c0,-2.139 -1.772,-3.873 -3.957,-3.873c-1.29,0 -2.433,0.607 -3.155,1.543c-0.185,-2.381 -2.358,-4.218 -4.9,-3.913c-1.859,0.223 -3.397,1.629 -3.739,3.431c-0.11,0.578 -0.098,1.139 0.011,1.665c-0.498,-0.525 -1.208,-0.856 -1.998,-0.856c-1.446,0 -2.627,1.102 -2.72,2.494c-0.657,-0.142 -1.371,-0.133 -2.123,0.143c-1.438,0.528 -2.462,1.853 -2.522,3.356c-0.085,2.133 1.657,3.889 3.818,3.889c0.164,0 0.741,0 0.874,0h7.934M29.709,53.126h0.36" fill="#fdfcef"></path><path d="M39.727,53.626h-3.54c-0.276,0 -0.5,-0.224 -0.5,-0.5c0,-0.276 0.224,-0.5 0.5,-0.5h3.54c1.831,0 3.32,-1.453 3.32,-3.239c0,-1.524 -1.108,-2.857 -2.636,-3.17c-0.255,-0.052 -0.428,-0.292 -0.396,-0.551c0.017,-0.138 0.029,-0.277 0.029,-0.419c0,-1.86 -1.551,-3.373 -3.457,-3.373c-1.092,0 -2.098,0.492 -2.76,1.349c-0.126,0.164 -0.342,0.233 -0.538,0.173c-0.198,-0.059 -0.34,-0.234 -0.355,-0.44c-0.079,-1.019 -0.565,-1.944 -1.37,-2.604c-0.828,-0.68 -1.886,-0.985 -2.972,-0.852c-1.646,0.197 -3.007,1.442 -3.308,3.028c-0.094,0.495 -0.091,0.99 0.009,1.471c0.046,0.219 -0.06,0.441 -0.258,0.544c-0.196,0.103 -0.439,0.064 -0.595,-0.099c-0.428,-0.452 -1.009,-0.7 -1.635,-0.7c-1.169,0 -2.145,0.891 -2.221,2.028c-0.01,0.145 -0.082,0.278 -0.198,0.366c-0.117,0.087 -0.264,0.119 -0.406,0.089c-0.64,-0.139 -1.243,-0.098 -1.845,0.124c-1.262,0.463 -2.145,1.631 -2.195,2.906c-0.035,0.875 0.282,1.708 0.895,2.345c0.635,0.661 1.495,1.024 2.423,1.024h8.808c0.276,0 0.5,0.224 0.5,0.5c0,0.276 -0.224,0.5 -0.5,0.5h-8.808c-1.185,0 -2.33,-0.485 -3.144,-1.332c-0.803,-0.835 -1.219,-1.928 -1.174,-3.078c0.068,-1.675 1.213,-3.204 2.85,-3.805c0.611,-0.225 1.239,-0.308 1.881,-0.245c0.345,-1.396 1.629,-2.424 3.135,-2.424c0.493,0 0.977,0.113 1.414,0.323c0.009,-0.241 0.036,-0.483 0.082,-0.726c0.381,-2.009 2.097,-3.586 4.171,-3.834c1.363,-0.163 2.685,0.218 3.726,1.072c0.748,0.613 1.278,1.409 1.546,2.302c0.791,-0.648 1.786,-1.007 2.843,-1.007c2.458,0 4.457,1.962 4.457,4.373c0,0.034 -0.001,0.068 -0.002,0.102c1.765,0.555 3.004,2.188 3.004,4.038c0,2.34 -1.938,4.241 -4.32,4.241zM30.069,53.626h-0.359c-0.276,0 -0.5,-0.224 -0.5,-0.5c0,-0.276 0.224,-0.5 0.5,-0.5h0.359c0.276,0 0.5,0.224 0.5,0.5c0,0.276 -0.224,0.5 -0.5,0.5z" fill="#472b29"></path><path d="M38.019,47.823c-0.018,0 -0.036,-0.002 -0.055,-0.006c-0.135,-0.03 -0.22,-0.164 -0.189,-0.299c0.037,-0.163 0.094,-0.324 0.169,-0.479c0.606,-1.225 2.275,-1.675 3.723,-1.007c0.126,0.058 0.181,0.207 0.122,0.332c-0.058,0.125 -0.209,0.179 -0.331,0.122c-1.205,-0.557 -2.579,-0.21 -3.065,0.774c-0.058,0.118 -0.101,0.242 -0.129,0.367c-0.027,0.117 -0.131,0.196 -0.245,0.196z" fill="#472b29"></path><g fill="#472b29"><path d="M32.861,53.626h-1.107c-0.276,0 -0.5,-0.224 -0.5,-0.5c0,-0.276 0.224,-0.5 0.5,-0.5h1.107c0.276,0 0.5,0.224 0.5,0.5c0,0.276 -0.224,0.5 -0.5,0.5z"></path></g><g fill="#ffffff"><path d="M67.196,21.59h-10.03c-0.276,0 -0.5,-0.224 -0.5,-0.5c0,-0.276 0.224,-0.5 0.5,-0.5h10.03c0.276,0 0.5,0.224 0.5,0.5c0,0.276 -0.224,0.5 -0.5,0.5zM70.077,21.59h-1.445c-0.276,0 -0.5,-0.224 -0.5,-0.5c0,-0.276 0.224,-0.5 0.5,-0.5h1.445c0.276,0 0.5,0.224 0.5,0.5c0,0.276 -0.224,0.5 -0.5,0.5zM74.131,21.59h-2.546c-0.276,0 -0.5,-0.224 -0.5,-0.5c0,-0.276 0.224,-0.5 0.5,-0.5h2.546c0.276,0 0.5,0.224 0.5,0.5c0,0.276 -0.223,0.5 -0.5,0.5zM72.106,17.86h-9.616c-0.276,0 -0.5,-0.224 -0.5,-0.5c0,-0.276 0.224,-0.5 0.5,-0.5h9.616c0.276,0 0.5,0.224 0.5,0.5c0,0.276 -0.224,0.5 -0.5,0.5zM60.758,17.86h-0.58c-0.276,0 -0.5,-0.224 -0.5,-0.5c0,-0.276 0.224,-0.5 0.5,-0.5h0.58c0.276,0 0.5,0.224 0.5,0.5c0,0.276 -0.223,0.5 -0.5,0.5zM58.381,17.86h-1.457c-0.276,0 -0.5,-0.224 -0.5,-0.5c0,-0.276 0.224,-0.5 0.5,-0.5h1.457c0.276,0 0.5,0.224 0.5,0.5c0,0.276 -0.223,0.5 -0.5,0.5zM69.543,19.725h-5.027c-0.276,0 -0.5,-0.224 -0.5,-0.5c0,-0.276 0.224,-0.5 0.5,-0.5h5.027c0.276,0 0.5,0.224 0.5,0.5c0,0.276 -0.224,0.5 -0.5,0.5z"></path><path d="M69.543,17.86h-1.257c-0.276,0 -0.5,-0.224 -0.5,-0.5c0,-0.276 0.224,-0.5 0.5,-0.5h1.257c0.276,0 0.5,0.224 0.5,0.5c0,0.276 -0.224,0.5 -0.5,0.5zM63.06,19.725h-1.759c-0.276,0 -0.5,-0.224 -0.5,-0.5c0,-0.276 0.224,-0.5 0.5,-0.5h1.759c0.276,0 0.5,0.224 0.5,0.5c0,0.276 -0.223,0.5 -0.5,0.5z"></path></g><g><path d="M44.908,27.214h11.754c4.936,4.824 7.756,7.581 12.692,12.405v30.645c0,2.943 -2.463,5.35 -5.474,5.35h-27.288c-3.011,0 -5.474,-2.408 -5.474,-5.35v-37.7c0,-2.943 2.463,-5.35 5.474,-5.35h0.795z" fill="#edf7f5"></path><path d="M63.88,76.315h-27.289c-3.404,0 -6.174,-2.714 -6.174,-6.05v-37.7c0,-3.336 2.77,-6.05 6.174,-6.05h20.071c0.183,0 0.358,0.072 0.489,0.2l12.691,12.405c0.135,0.132 0.211,0.312 0.211,0.5v30.646c0.001,3.335 -2.768,6.049 -6.173,6.049zM36.591,27.914c-2.632,0 -4.773,2.086 -4.773,4.65v37.7c0,2.564 2.142,4.65 4.773,4.65h27.289c2.632,0 4.773,-2.086 4.773,-4.65v-30.35l-12.275,-12z" fill="#472b29"></path><path d="M56.504,27.521v6.73c0,3.038 2.396,5.523 5.325,5.523h7.08" fill="#85cfcc"></path><path d="M68.91,40.149h-7.08c-3.144,0 -5.7,-2.646 -5.7,-5.898v-6.73c0,-0.207 0.168,-0.375 0.375,-0.375c0.207,0 0.375,0.168 0.375,0.375v6.73c0,2.838 2.221,5.148 4.95,5.148h7.08c0.207,0 0.375,0.168 0.375,0.375c0,0.207 -0.168,0.375 -0.375,0.375zM65.907,51.177c-0.207,0 -0.375,-0.168 -0.375,-0.375v-1.838c0,-0.207 0.168,-0.375 0.375,-0.375c0.207,0 0.375,0.168 0.375,0.375v1.838c0,0.207 -0.168,0.375 -0.375,0.375zM65.907,56.078c-0.207,0 -0.375,-0.168 -0.375,-0.375v-3.676c0,-0.207 0.168,-0.375 0.375,-0.375c0.207,0 0.375,0.168 0.375,0.375v3.676c0,0.207 -0.168,0.375 -0.375,0.375zM61.42,72.62h-22.368c-2.681,0 -4.861,-2.144 -4.861,-4.78v-32.264c0,-1.587 0.804,-3.068 2.15,-3.962c0.172,-0.115 0.404,-0.067 0.52,0.105c0.114,0.172 0.067,0.405 -0.105,0.52c-1.136,0.755 -1.814,2.002 -1.814,3.337v32.264c0,2.222 1.845,4.03 4.111,4.03h22.367c2.267,0 4.111,-1.808 4.111,-4.03v-10.911c0,-0.207 0.168,-0.375 0.375,-0.375c0.207,0 0.375,0.168 0.375,0.375v10.911c0.001,2.636 -2.18,4.78 -4.861,4.78z" fill="#472b29"></path><path d="M47.683,53.641h-9.664c-0.207,0 -0.375,-0.168 -0.375,-0.375c0,-0.207 0.168,-0.375 0.375,-0.375h9.664c0.207,0 0.375,0.168 0.375,0.375c0,0.207 -0.168,0.375 -0.375,0.375zM46.022,58.104h-7.852c-0.207,0 -0.375,-0.168 -0.375,-0.375c0,-0.207 0.168,-0.375 0.375,-0.375h7.852c0.207,0 0.375,0.168 0.375,0.375c0,0.207 -0.168,0.375 -0.375,0.375zM62.331,58.104h-14.496c-0.207,0 -0.375,-0.168 -0.375,-0.375c0,-0.207 0.168,-0.375 0.375,-0.375h14.496c0.207,0 0.375,0.168 0.375,0.375c0,0.207 -0.168,0.375 -0.375,0.375zM56.744,62.068h-6.645c-0.207,0 -0.375,-0.168 -0.375,-0.375c0,-0.207 0.168,-0.375 0.375,-0.375h6.645c0.207,0 0.375,0.168 0.375,0.375c0,0.207 -0.168,0.375 -0.375,0.375zM62.784,62.068h-4.832c-0.207,0 -0.375,-0.168 -0.375,-0.375c0,-0.207 0.168,-0.375 0.375,-0.375h4.832c0.207,0 0.375,0.168 0.375,0.375c0,0.207 -0.168,0.375 -0.375,0.375zM48.288,62.068h-10.269c-0.207,0 -0.375,-0.168 -0.375,-0.375c0,-0.207 0.168,-0.375 0.375,-0.375h10.269c0.207,0 0.375,0.168 0.375,0.375c0,0.207 -0.168,0.375 -0.375,0.375zM62.179,66.032h-8.456c-0.207,0 -0.375,-0.168 -0.375,-0.375c0,-0.207 0.168,-0.375 0.375,-0.375h8.456c0.207,0 0.375,0.168 0.375,0.375c0,0.207 -0.168,0.375 -0.375,0.375zM52.515,66.032h-14.496c-0.207,0 -0.375,-0.168 -0.375,-0.375c0,-0.207 0.168,-0.375 0.375,-0.375h14.496c0.207,0 0.375,0.168 0.375,0.375c0,0.207 -0.168,0.375 -0.375,0.375zM47.683,49.177h-9.664c-0.207,0 -0.375,-0.168 -0.375,-0.375c0,-0.207 0.168,-0.375 0.375,-0.375h9.664c0.207,0 0.375,0.168 0.375,0.375c0,0.207 -0.168,0.375 -0.375,0.375zM47.683,44.713h-9.664c-0.207,0 -0.375,-0.168 -0.375,-0.375c0,-0.207 0.168,-0.375 0.375,-0.375h9.664c0.207,0 0.375,0.168 0.375,0.375c0,0.207 -0.168,0.375 -0.375,0.375z" fill="#472b29"></path><g><path d="M60.21,54.641h-9.411c-0.7,0 -1.272,-0.573 -1.272,-1.272v-9.104c0,-0.7 0.573,-1.272 1.272,-1.272h9.411c0.7,0 1.272,0.573 1.272,1.272v9.104c0,0.7 -0.573,1.272 -1.272,1.272z" fill="#a8dbdb"></path><path d="M60.21,54.891h-9.41c-0.84,0 -1.522,-0.683 -1.522,-1.522v-9.104c0,-0.839 0.683,-1.522 1.522,-1.522h9.41c0.84,0 1.522,0.683 1.522,1.522v9.104c0,0.839 -0.683,1.522 -1.522,1.522zM50.799,43.242c-0.563,0 -1.022,0.458 -1.022,1.022v9.104c0,0.564 0.459,1.022 1.022,1.022h9.41c0.563,0 1.022,-0.458 1.022,-1.022v-9.104c0,-0.564 -0.459,-1.022 -1.022,-1.022z" fill="#472b29"></path></g><g><path d="M53.052,44.299c-0.93115,0 -1.686,0.75485 -1.686,1.686c0,0.93115 0.75485,1.686 1.686,1.686c0.93115,0 1.686,-0.75485 1.686,-1.686c0,-0.93115 -0.75485,-1.686 -1.686,-1.686z" fill="#f1bc19"></path><path d="M53.052,47.921c-1.067,0 -1.937,-0.869 -1.937,-1.936c0,-1.067 0.869,-1.936 1.937,-1.936c1.068,0 1.936,0.869 1.936,1.936c0,1.067 -0.868,1.936 -1.936,1.936zM53.052,44.549c-0.792,0 -1.437,0.644 -1.437,1.436c0,0.792 0.645,1.436 1.437,1.436c0.792,0 1.436,-0.644 1.436,-1.436c0,-0.792 -0.644,-1.436 -1.436,-1.436z" fill="#472b29"></path></g><g><path d="M49.527,51.882l2.86,-3.071l2.313,3.032l-1.877,2.799l-2.218,-0.024c0,0 -1.078,-0.173 -1.078,-1.164c0,-0.991 0,-1.572 0,-1.572z" fill="#88ae45"></path><path d="M52.822,54.892c-0.001,0 -0.002,0 -0.003,0l-2.218,-0.023c-0.482,-0.075 -1.324,-0.461 -1.324,-1.415v-1.571c0,-0.063 0.024,-0.124 0.067,-0.17l2.859,-3.071c0.05,-0.054 0.101,-0.085 0.195,-0.079c0.073,0.003 0.142,0.039 0.187,0.098l2.313,3.032c0.064,0.085 0.068,0.202 0.009,0.291l-1.878,2.799c-0.046,0.067 -0.124,0.109 -0.207,0.109zM49.777,51.98v1.473c0,0.77 0.831,0.912 0.867,0.917l2.045,0.019l1.703,-2.538l-2.024,-2.654z" fill="#472b29"></path></g><g><path d="M61.444,50.928l-3.047,-4.274l-5.556,7.987h7.435c0.663,0 1.206,-0.515 1.206,-1.145v-2.563z" fill="#88ae45"></path><path d="M60.276,54.891h-7.435c-0.093,0 -0.179,-0.052 -0.222,-0.134c-0.043,-0.082 -0.037,-0.182 0.017,-0.258l5.556,-7.987c0.046,-0.067 0.122,-0.107 0.204,-0.107h0.001c0.081,0 0.156,0.039 0.203,0.105l2.995,4.202c0.082,0.042 0.137,0.126 0.137,0.223v2.562c0,0.768 -0.653,1.394 -1.456,1.394zM53.32,54.391h6.956c0.527,0 0.956,-0.402 0.956,-0.896v-2.434l-2.832,-3.973z" fill="#472b29"></path></g><g fill="#472b29"><path d="M51.444,39.149h-4.822c-0.207,0 -0.375,-0.168 -0.375,-0.375c0,-0.207 0.168,-0.375 0.375,-0.375h4.822c0.207,0 0.375,0.168 0.375,0.375c0,0.207 -0.168,0.375 -0.375,0.375zM41.361,35.867h-3.507c-0.207,0 -0.375,-0.168 -0.375,-0.375c0,-0.207 0.168,-0.375 0.375,-0.375h3.507c0.207,0 0.375,0.168 0.375,0.375c0,0.207 -0.168,0.375 -0.375,0.375zM45.306,39.149h-7.452c-0.207,0 -0.375,-0.168 -0.375,-0.375c0,-0.207 0.168,-0.375 0.375,-0.375h7.452c0.207,0 0.375,0.168 0.375,0.375c0,0.207 -0.168,0.375 -0.375,0.375z"></path></g></g><g><path d="M47.753,78.274c-0.128,0 -0.256,-0.049 -0.354,-0.146c-0.195,-0.195 -0.195,-0.512 0,-0.707l2.785,-2.785c0.195,-0.195 0.512,-0.195 0.707,0c0.195,0.195 0.195,0.512 0,0.707l-2.785,2.785c-0.098,0.098 -0.226,0.146 -0.353,0.146z" fill="#472b29"></path><path d="M35.882,89.775l-0.131,-0.131c-1.058,-1.058 -1.058,-2.79 0,-3.848l8.088,-8.088c1.058,-1.058 2.79,-1.058 3.848,0l0.131,0.131c1.058,1.058 1.058,2.79 0,3.848l-8.088,8.088c-1.058,1.059 -2.789,1.059 -3.848,0z" fill="#88ae45"></path><path d="M37.806,91.069c-0.861,0 -1.67,-0.333 -2.276,-0.94l-0.131,-0.13c-1.257,-1.256 -1.257,-3.3 -0.001,-4.556l8.088,-8.088c1.254,-1.255 3.298,-1.257 4.556,0l0.131,0.132c0.605,0.604 0.939,1.414 0.939,2.276c0,0.862 -0.334,1.671 -0.94,2.278l-8.088,8.087c-0.606,0.607 -1.414,0.941 -2.278,0.941zM45.764,77.413c-0.569,0 -1.138,0.216 -1.571,0.649l-8.088,8.088c-0.865,0.866 -0.865,2.275 0,3.141l0.13,0.13c0.001,0 0.001,0 0.001,0c0.836,0.835 2.307,0.834 3.141,0l8.088,-8.087c0.418,-0.417 0.647,-0.976 0.647,-1.571c0,-0.595 -0.229,-1.153 -0.647,-1.57l-0.131,-0.132c-0.433,-0.432 -1.001,-0.648 -1.57,-0.648z" fill="#472b29"></path><path d="M47.457,78.059c-0.923,-0.923 -2.374,-0.984 -3.223,-0.135l-0.154,0.154l0.336,0.336l3.022,3.022l0.154,-0.154c0.849,-0.849 0.788,-2.299 -0.135,-3.223z" fill="#d1dc82"></path><path d="M47.443,82.216c-0.096,0 -0.192,-0.037 -0.266,-0.11l-3.58,-3.581c-0.146,-0.146 -0.146,-0.384 0,-0.53c0.146,-0.146 0.385,-0.146 0.531,0l3.58,3.581c0.146,0.146 0.146,0.384 0,0.53c-0.073,0.074 -0.169,0.11 -0.265,0.11z" fill="#472b29"></path><path transform="translate(-29.44579,61.33734) rotate(-45.001)" d="M59.316,56.364c-5.43835,0 -9.847,4.40865 -9.847,9.847c0,5.43835 4.40865,9.847 9.847,9.847c5.43835,0 9.847,-4.40865 9.847,-9.847c0,-5.43835 -4.40865,-9.847 -9.847,-9.847z" fill="#77cbd2" opacity="0.74"></path><path d="M68.044,57.484c-4.834,-4.834 -12.672,-4.834 -17.506,0c-4.834,4.834 -4.834,12.672 0,17.506c4.834,4.834 12.672,4.834 17.506,0c4.834,-4.835 4.834,-12.672 0,-17.506zM66.253,73.199c-3.845,3.845 -10.08,3.845 -13.925,0c-3.845,-3.845 -3.845,-10.08 0,-13.925c3.845,-3.845 10.08,-3.845 13.925,0c3.846,3.845 3.846,10.08 0,13.925z" fill="#fdfcef"></path><path d="M59.291,79.115c-3.44,0 -6.674,-1.34 -9.106,-3.772c-5.021,-5.021 -5.021,-13.191 0,-18.213c5.021,-5.022 13.191,-5.021 18.213,0v0c5.021,5.021 5.021,13.192 0,18.213c-2.434,2.432 -5.667,3.772 -9.107,3.772zM59.291,54.363c-3.042,0 -6.084,1.158 -8.399,3.474c-4.631,4.632 -4.631,12.167 0,16.799c2.243,2.244 5.227,3.479 8.399,3.479c3.172,0 6.156,-1.236 8.399,-3.479c4.631,-4.631 4.631,-12.167 0,-16.799c-2.315,-2.316 -5.357,-3.474 -8.399,-3.474zM59.291,76.583c-2.764,0 -5.361,-1.076 -7.315,-3.03c-1.954,-1.954 -3.03,-4.552 -3.03,-7.316c0,-2.764 1.076,-5.362 3.03,-7.316c1.954,-1.954 4.552,-3.03 7.315,-3.03c2.763,0 5.362,1.076 7.316,3.03c1.954,1.954 3.031,4.552 3.031,7.316c0,2.764 -1.077,5.362 -3.031,7.316c-1.954,1.954 -4.553,3.03 -7.316,3.03zM59.291,56.89c-2.496,0 -4.844,0.972 -6.608,2.737c-1.766,1.765 -2.737,4.112 -2.737,6.609c0,2.497 0.972,4.844 2.737,6.609c1.765,1.765 4.112,2.737 6.608,2.737c2.497,0 4.844,-0.972 6.609,-2.737c1.765,-1.765 2.738,-4.112 2.738,-6.609c0,-2.497 -0.973,-4.844 -2.738,-6.609c-1.765,-1.765 -4.112,-2.737 -6.609,-2.737zM37.184,90.62c-0.053,0 -0.102,-0.034 -0.119,-0.087l-1.378,-4.28c-0.021,-0.065 0.015,-0.136 0.081,-0.157c0.067,-0.019 0.136,0.015 0.157,0.081l1.378,4.28c0.021,0.065 -0.015,0.136 -0.081,0.157c-0.012,0.004 -0.025,0.006 -0.038,0.006zM38.056,90.322c-0.054,0 -0.104,-0.035 -0.12,-0.089l-1.561,-5.244c-0.02,-0.066 0.019,-0.136 0.084,-0.155c0.072,-0.021 0.137,0.018 0.156,0.084l1.561,5.244c0.02,0.066 -0.019,0.136 -0.084,0.155c-0.012,0.004 -0.024,0.005 -0.036,0.005zM38.583,88.479c-0.054,0 -0.104,-0.035 -0.12,-0.089l-1.307,-4.389c-0.02,-0.066 0.019,-0.136 0.084,-0.155c0.071,-0.021 0.137,0.019 0.156,0.084l1.307,4.389c0.02,0.066 -0.019,0.136 -0.084,0.155c-0.013,0.004 -0.025,0.005 -0.036,0.005zM39.115,86.555c-0.054,0 -0.104,-0.035 -0.12,-0.089l-0.921,-3.094c-0.02,-0.066 0.019,-0.136 0.084,-0.155c0.072,-0.021 0.136,0.019 0.156,0.084l0.921,3.094c0.02,0.066 -0.019,0.136 -0.084,0.155c-0.013,0.004 -0.024,0.005 -0.036,0.005z" fill="#472b29"></path></g></g></g></svg>